<?xml version="1.0" encoding="utf-8"?>
<!-- Generator: Adobe Illustrator 28.0.0, SVG Export Plug-In . SVG Version: 6.00 Build 0)  -->
<svg version="1.1" id="katman_1" xmlns="http://www.w3.org/2000/svg" xmlns:xlink="http://www.w3.org/1999/xlink" x="0px" y="0px"
	 viewBox="0 0 512 512" style="enable-background:new 0 0 512 512;" xml:space="preserve">
<style type="text/css">
	.st0{fill:#1F1F1F;}
	.st1{fill:#161617;}
	.st2{fill:#020203;}
	.st3{fill:#676767;}
	.st4{fill-rule:evenodd;clip-rule:evenodd;fill:#676767;}
	.st5{fill:url(#SVGID_1_);}
	.st6{fill:url(#SVGID_00000042008784974318599070000005272106354889676455_);}
	.st7{fill:url(#SVGID_00000014631333253683290780000002964597055304735161_);}
	.st8{fill:none;}
	.st9{fill:url(#SVGID_00000002358959651854385960000005792091492046211749_);}
	.st10{opacity:0.25;fill-rule:evenodd;clip-rule:evenodd;fill:#020203;}
	.st11{font-family:'ExcludedItalic';}
	.st12{font-size:130.1094px;}
	.st13{letter-spacing:-5;}
	.st14{fill:url(#SVGID_00000069375221516397420560000009730304829465319324_);}
	.st15{fill:url(#SVGID_00000013913297192623429480000006396228790145371050_);}
	.st16{fill:url(#SVGID_00000151531227077981491930000004798589682176350643_);}
</style>
<g>
	<circle class="st0" cx="256" cy="256" r="245.91"/>
	<g>
		<g>
			<g>
				<path class="st1" d="M256,56.74c-55.02,0-104.84,22.3-140.9,58.36L256,256V56.74z"/>
				<path class="st2" d="M396.9,115.1C360.84,79.04,311.02,56.74,256,56.74V256L396.9,115.1z"/>
				<path class="st2" d="M115.1,115.1C79.04,151.16,56.74,200.98,56.74,256H256L115.1,115.1z"/>
				<path class="st1" d="M455.26,256c0-55.02-22.3-104.84-58.36-140.9L256,256H455.26z"/>
				<path class="st1" d="M256,455.26c55.02,0,104.84-22.3,140.9-58.36L256,256V455.26z"/>
				<path class="st2" d="M256,256l140.9,140.9c36.06-36.06,58.36-85.87,58.36-140.9H256z"/>
				<g>
					<path class="st2" d="M115.1,396.9c36.06,36.06,85.87,58.36,140.9,58.36V256L115.1,396.9z"/>
				</g>
				<path class="st1" d="M56.74,256c0,55.02,22.3,104.84,58.36,140.9L256,256H56.74z"/>
			</g>
		</g>
	</g>
	<g>
		<g>
			<g>
				<path class="st3" d="M408.79,188.84h5.11c0.09,0,0.18,0,0.27,0.01c-0.11-2.54-2.22-4.58-4.79-4.58c-1,0-1.93,0.31-2.7,0.84
					C407.77,186.04,408.55,187.35,408.79,188.84z"/>
				<path class="st3" d="M402.73,185.06c-2.29,0-4.2,1.63-4.65,3.78h9.31C406.93,186.68,405.02,185.06,402.73,185.06z"/>
				<path class="st3" d="M413.89,190.23h-16.43c-1.07,0-1.95,0.81-2.06,1.85h20.55C415.84,191.03,414.96,190.23,413.89,190.23z"/>
				<path class="st3" d="M407.96,201.95l-1.11-1.85c-0.4-0.66-0.4-1.48,0-2.14l1.11-1.85c0.37-0.62,1.05-1.01,1.78-1.01h6.23v-1.66
					h-20.58v11.17h20.58v-1.66h-6.23C409.02,202.96,408.33,202.58,407.96,201.95z M397.93,198.35h1.85c0.38,0,0.69,0.31,0.69,0.69
					c0,0.38-0.31,0.69-0.69,0.69h-1.85c-0.38,0-0.69-0.31-0.69-0.69C397.24,198.66,397.55,198.35,397.93,198.35z M401.25,202.32
					h-3.32c-0.38,0-0.69-0.31-0.69-0.69s0.31-0.69,0.69-0.69h3.32c0.38,0,0.69,0.31,0.69,0.69S401.63,202.32,401.25,202.32z"/>
				<path class="st3" d="M397.47,207.9h16.43c1.08,0,1.97-0.83,2.07-1.89H395.4C395.49,207.07,396.38,207.9,397.47,207.9
					L397.47,207.9z"/>
				<path class="st3" d="M416.02,196.5h-6.28c-0.24,0-0.47,0.13-0.59,0.34l-1.11,1.85c-0.13,0.22-0.13,0.49,0,0.71l1.11,1.85
					c0.13,0.21,0.35,0.34,0.59,0.34h6.28c0.38,0,0.69-0.31,0.69-0.69v-3.69C416.71,196.81,416.4,196.5,416.02,196.5z M410.85,199.73
					c-0.38,0-0.69-0.31-0.69-0.69c0-0.38,0.31-0.69,0.69-0.69h0c0.38,0,0.69,0.31,0.69,0.69
					C411.54,199.42,411.23,199.73,410.85,199.73z"/>
			</g>
		</g>
		<g id="Layer_x0020_1_00000032628626558883364920000010763031979551566218_">
			<g>
				<g id="_526250392_00000120520210020362977320000010235635213460836259_">
					<path id="_526250968_00000032606117816976686200000014912172495421901978_" class="st4" d="M104.54,318.48
						c1.37,0,2.48,1.11,2.48,2.48c0,1.37-1.11,2.48-2.48,2.48s-2.48-1.11-2.48-2.48C102.07,319.59,103.18,318.48,104.54,318.48
						L104.54,318.48z M104.54,319.91c0.58,0,1.04,0.47,1.04,1.04c0,0.58-0.47,1.04-1.04,1.04c-0.58,0-1.04-0.47-1.04-1.04
						C103.5,320.38,103.97,319.91,104.54,319.91L104.54,319.91z"/>
					<path id="_526251400_00000070830040163827027210000007344459028166117281_" class="st4" d="M94.66,309.14h19.77
						c1.06,0,1.93,0.87,1.93,1.93v19.77c0,1.06-0.87,1.93-1.93,1.93H94.66c-1.06,0-1.93-0.87-1.93-1.93v-19.77
						C92.73,310.01,93.6,309.14,94.66,309.14L94.66,309.14z M104.54,310.47c5.79,0,10.49,4.7,10.49,10.49
						c0,5.79-4.7,10.49-10.49,10.49c-5.79,0-10.49-4.7-10.49-10.49C94.06,315.16,98.75,310.47,104.54,310.47L104.54,310.47z
						 M114.25,330c0.37,0,0.66,0.3,0.66,0.66s-0.3,0.66-0.66,0.66c-0.37,0-0.66-0.3-0.66-0.66S113.88,330,114.25,330z M94.84,330
						c0.37,0,0.66,0.3,0.66,0.66s-0.3,0.66-0.66,0.66c-0.37,0-0.66-0.3-0.66-0.66S94.47,330,94.84,330z M94.84,310.59
						c0.37,0,0.66,0.3,0.66,0.66c0,0.37-0.3,0.66-0.66,0.66c-0.37,0-0.66-0.3-0.66-0.66C94.18,310.88,94.47,310.59,94.84,310.59z
						 M114.25,310.59c0.37,0,0.66,0.3,0.66,0.66c0,0.37-0.3,0.66-0.66,0.66c-0.37,0-0.66-0.3-0.66-0.66
						C113.59,310.88,113.88,310.59,114.25,310.59z"/>
					<g>
						<path id="_526250776_00000060026938861827430280000014920780697409929909_" class="st4" d="M102.33,312.68
							c-1.68,2.38-0.23,5.09,0.39,6.03c0.5-0.41,1.14-0.65,1.83-0.65c0.1,0,0.19,0,0.29,0.01c-0.32-2.51,1.4-5.39,1.4-5.39
							C104.23,312.12,102.33,312.68,102.33,312.68z"/>
						<path id="_526250368_00000049915174668211116390000016313957557650580615_" class="st4" d="M110.6,314.9
							c-2.9-0.26-4.52,2.35-5.03,3.35c0.72,0.27,1.3,0.82,1.61,1.52c2.02-1.53,5.37-1.48,5.37-1.48
							C112.04,316.26,110.6,314.9,110.6,314.9z"/>
						<path id="_526250128_00000127748177270493004020000014055303279137150372_" class="st4" d="M106.9,322.65
							c2.34,0.98,3.97,3.91,3.97,3.91c1.49-1.46,1.96-3.39,1.96-3.39c-1.22-2.64-4.29-2.74-5.42-2.68c0.02,0.15,0.04,0.31,0.04,0.46
							C107.44,321.59,107.24,322.17,106.9,322.65L106.9,322.65z"/>
						<path id="_526250512_00000025422420510527223210000006098118531793767866_" class="st4" d="M96.53,323.63
							c0.52,2.02,1.95,3.39,1.95,3.39c2.9,0.26,4.52-2.35,5.03-3.35c-0.72-0.27-1.3-0.82-1.61-1.52
							C99.89,323.68,96.53,323.63,96.53,323.63L96.53,323.63z"/>
						<path id="_526250248_00000180364754538208639530000004898894465908482236_" class="st4" d="M96.27,318.74
							c1.22,2.64,4.29,2.74,5.42,2.68c-0.02-0.15-0.04-0.31-0.04-0.46c0-0.63,0.2-1.22,0.55-1.69c-2.34-0.98-3.97-3.91-3.97-3.91
							C96.74,316.81,96.27,318.74,96.27,318.74z"/>
						<path id="_526250320_00000183959708921858098610000005907885252757889436_" class="st4" d="M104.26,323.84
							c0.32,2.51-1.4,5.39-1.4,5.39c2.01,0.56,3.91,0,3.91,0c1.68-2.38,0.23-5.09-0.39-6.03c-0.5,0.41-1.14,0.65-1.83,0.65
							C104.45,323.85,104.35,323.85,104.26,323.84L104.26,323.84z"/>
					</g>
				</g>
			</g>
		</g>
		<g id="XMLID_00000029016452342502857640000010418565945253717644_">
			<g>
				<path id="XMLID_00000000185196019507320340000012827368957890121916_" class="st3" d="M203.32,98.99
					c0.01-0.1,0.01-0.2,0.01-0.31c0-1.9-1.54-3.45-3.45-3.45c-0.25,0-0.5,0.03-0.74,0.08c-0.64-1.37-1.65-2.53-2.9-3.35
					c-1.25-0.82-2.75-1.29-4.36-1.29c-2.24,0-4.27,0.92-5.72,2.41c-3.17,0.13-5.69,2.74-5.69,5.93c0,0.63,0.1,1.24,0.28,1.81
					c-0.65,0.45-1.18,1.06-1.56,1.76c-0.37,0.7-0.59,1.51-0.59,2.36c0,2.78,2.25,5.03,5.03,5.03h7.64
					c-0.23-0.65-0.35-1.34-0.36-2.05c-0.02-1.74,0.64-3.38,1.86-4.62c1.22-1.24,2.86-1.92,4.6-1.92h0c1.14,0,2.26,0.31,3.24,0.89
					c0.55,0.32,1.04,0.74,1.46,1.22l0.2-0.91l1.63,0.36l-0.84,3.75l-3.78-0.83l0.36-1.63l1.05,0.23c-0.28-0.3-0.59-0.55-0.94-0.76
					c-0.72-0.43-1.54-0.65-2.39-0.65c-1.29,0-2.51,0.51-3.41,1.43c-0.91,0.92-1.4,2.14-1.38,3.43c0.01,0.74,0.19,1.45,0.51,2.07
					h8.45c0.04,0,0.08,0,0.11,0c-0.8,1.6-2.44,2.66-4.29,2.66c-0.02,0-0.05,0-0.07,0c-1.83-0.03-3.43-1.11-4.21-2.66h-1.82
					c0.32,0.9,0.84,1.73,1.53,2.42c1.2,1.2,2.79,1.88,4.47,1.9c0.03,0,0.06,0,0.09,0c2.9,0,5.43-1.94,6.22-4.71
					c0.74-0.29,1.4-0.72,1.94-1.27c1.02-1.02,1.65-2.43,1.65-3.99C207.17,101.85,205.56,99.73,203.32,98.99L203.32,98.99z"/>
			</g>
		</g>
		<g id="Glyph_00000021835945650184295810000002662337744086371771_">
			<g>
				<g id="Glyph-2_00000106860432461172889610000000091996396115039156_">
					<path class="st3" d="M202,406.48c-0.15,0.04-0.24,0.18-0.21,0.33c0.2,0.86,0.3,1.74,0.31,2.62
						c-0.01,6.21-5.04,11.25-11.26,11.26c-2.45,0.01-4.84-0.79-6.79-2.28c0.57-0.85,0.34-2.01-0.51-2.58s-2.01-0.34-2.58,0.51
						c-0.57,0.85-0.34,2.01,0.51,2.58c0.68,0.45,1.57,0.41,2.21-0.1c2.05,1.58,4.57,2.43,7.16,2.42
						c6.53-0.01,11.82-5.31,11.81-11.84c0-0.92-0.11-1.83-0.32-2.72C202.3,406.53,202.15,406.44,202,406.48
						C202,406.48,202,406.48,202,406.48L202,406.48z"/>
					<path class="st3" d="M179.59,409.43c0-6.22,5.04-11.26,11.26-11.26c2.08,0,4.12,0.58,5.89,1.67c-0.39,0.83-0.03,1.82,0.8,2.21
						s1.82,0.03,2.21-0.8c0.39-0.83,0.03-1.82-0.8-2.21c-0.64-0.3-1.4-0.16-1.89,0.34c-5.55-3.43-12.83-1.71-16.26,3.84
						c-1.15,1.87-1.76,4.02-1.76,6.21c0,0.72,0.06,1.44,0.2,2.15c0.02,0.13,0.14,0.23,0.27,0.23c0.02,0,0.03,0,0.05-0.01
						c0.15-0.03,0.25-0.17,0.22-0.32C179.65,410.8,179.59,410.12,179.59,409.43L179.59,409.43z"/>
					<path class="st3" d="M189.18,407.6v0.17h3.33v-0.17C192.48,405.35,189.2,405.35,189.18,407.6z"/>
					<path class="st3" d="M198.6,403.66c-3.12,0.03-6.13-1.9-7.28-2.73c-0.29-0.21-0.68-0.21-0.97,0c-1.15,0.83-4.16,2.75-7.28,2.73
						c-0.46,0-0.84,0.37-0.85,0.83c0,0,0,0,0,0.01c0,4.27,0.86,10.38,8.23,14.12c0.24,0.12,0.52,0.12,0.75,0
						c7.38-3.73,8.23-9.84,8.23-14.12C199.45,404.03,199.07,403.66,198.6,403.66L198.6,403.66z M193.9,412.11
						c0,0.77-0.62,1.39-1.39,1.39l0,0h-3.33c-0.77,0-1.39-0.62-1.39-1.39l0,0v-2.96c0-0.55,0.33-1.05,0.83-1.27v-0.29
						c0.03-2.97,4.41-2.97,4.44,0v0.29c0.51,0.22,0.83,0.72,0.83,1.27V412.11z"/>
					<path class="st3" d="M191.3,410.31c-0.01-0.05,0.01-0.1,0.04-0.14c0.19-0.27,0.12-0.64-0.15-0.83
						c-0.27-0.19-0.64-0.12-0.83,0.15c-0.14,0.2-0.14,0.47,0,0.68c0.03,0.04,0.05,0.09,0.04,0.14c-0.04,0.22-0.17,0.84-0.25,1.27
						c-0.04,0.2,0.09,0.4,0.29,0.43c0.02,0,0.05,0.01,0.07,0.01h0.69c0.2,0,0.37-0.17,0.37-0.37c0-0.02,0-0.05-0.01-0.07
						L191.3,410.31z"/>
				</g>
			</g>
		</g>
		<g>
			<g>
				<path class="st3" d="M315.5,103.14c-0.24,0.11-0.5,0.18-0.78,0.18h-1.2l-1.35,2.59c-0.3,0.59-0.92,0.97-1.6,0.97h-0.17
					l-0.08-0.01c-0.74-0.11-1.34-0.65-1.51-1.38l-0.49-2.08c-0.31,0.25-0.7,0.39-1.12,0.39h-5.74c3.2,5.24,8.88,9.19,9.21,9.42
					c0.1,0.07,0.22,0.1,0.34,0.1c0.12,0,0.24-0.04,0.34-0.1c0.33-0.22,5.8-4.03,9.03-9.13h-3.28
					C316.41,104.08,315.81,103.71,315.5,103.14z"/>
				<path class="st3" d="M305.99,100.16l1.25-2.86c0.28-0.66,0.93-1.09,1.66-1.09h0.05l0.11,0.01c0.77,0.07,1.42,0.63,1.6,1.39
					l0.59,2.5c0.32-0.27,0.73-0.42,1.16-0.42h0.94l0.62-2.17c0.22-0.76,0.9-1.29,1.7-1.31h0.01c0.83,0,1.51,0.49,1.76,1.25
					l0.96,2.99h3.72c0.36-1.09,0.57-2.23,0.57-3.36c0-4.08-3.32-7.4-7.4-7.4c-1.54,0-3.05,0.48-4.31,1.38
					c-1.25-0.9-2.76-1.38-4.31-1.38c-4.08,0-7.39,3.31-7.39,7.4c0,1.04,0.18,2.07,0.48,3.07H305.99z"/>
				<path class="st3" d="M298.72,102.58h8.46c0.24,0,0.45-0.14,0.55-0.36l1-2.28l1.23,5.26c0.06,0.25,0.27,0.43,0.51,0.47h0.08
					c0.22,0,0.43-0.12,0.53-0.32l1.69-3.24h1.94c0.27,0,0.51-0.18,0.58-0.44l0.45-1.57l0.76,2.35c0.08,0.25,0.31,0.42,0.57,0.42
					h5.86c0.26,0.89,1.08,1.54,2.05,1.54c1.18,0,2.15-0.96,2.15-2.15c0-1.18-0.96-2.15-2.15-2.15c-0.97,0-1.79,0.66-2.05,1.54h-5.42
					l-1.23-3.82c-0.08-0.25-0.31-0.42-0.59-0.42c-0.27,0.01-0.5,0.18-0.57,0.44l-0.88,3.04h-1.84c-0.22,0-0.43,0.13-0.54,0.33
					l-1.11,2.12l-1.28-5.45c-0.06-0.25-0.27-0.44-0.53-0.47c-0.26-0.02-0.51,0.12-0.61,0.36l-1.57,3.58h-8.06
					c-0.34,0-0.6,0.27-0.6,0.6C298.11,102.31,298.38,102.58,298.72,102.58z M325,101.32c0.52,0,0.94,0.42,0.94,0.94
					s-0.42,0.94-0.94,0.94s-0.94-0.42-0.94-0.94S324.48,101.32,325,101.32z"/>
			</g>
		</g>
		<g>
			<g>
				<g>
					<path class="st3" d="M413.18,313.72l2.36,0.47c0.02,1.16,0.98,2.08,2.14,2.05s2.08-0.98,2.05-2.14
						c-0.02-1.16-0.98-2.08-2.14-2.05c-0.81,0.02-1.54,0.5-1.87,1.25l-2.42-0.48c0-0.89-0.35-1.74-0.96-2.38l3.14-4.43
						c1.32,0.63,2.91,0.07,3.54-1.26c0.63-1.32,0.07-2.91-1.26-3.54c-1.32-0.63-2.91-0.07-3.54,1.26c-0.48,1.01-0.28,2.21,0.51,3.01
						l-3.11,4.39c-1.43-0.86-3.27-0.57-4.37,0.68l-4.08-3.17c0.54-1.03,0.13-2.3-0.9-2.84c-1.03-0.54-2.3-0.13-2.84,0.9
						c-0.54,1.03-0.13,2.3,0.9,2.84c0.72,0.38,1.6,0.3,2.25-0.2l4.16,3.23c-0.69,1.41-0.34,3.11,0.86,4.13l-2.53,3.57
						c-1.34-0.81-3.08-0.39-3.89,0.95c-0.81,1.34-0.39,3.08,0.95,3.89c1.34,0.81,3.08,0.39,3.89-0.95c0.63-1.04,0.53-2.37-0.26-3.3
						l2.6-3.67c0.89,0.42,1.91,0.45,2.82,0.06l3.08,4.55c-0.91,0.96-0.86,2.47,0.09,3.37c0.96,0.91,2.47,0.86,3.37-0.09
						s0.86-2.47-0.09-3.37c-0.71-0.67-1.75-0.84-2.63-0.44l-3.03-4.48C412.56,315.08,412.98,314.44,413.18,313.72z"/>
				</g>
			</g>
		</g>
		<g>
			<g>
				<path class="st3" d="M324.36,412.17c1.83-0.52,3.22-2.09,3.5-4.01h-2.32C325.41,409.77,324.85,411.2,324.36,412.17z"/>
				<path class="st3" d="M321.88,406.77h2.27c-0.14-1.49-0.7-2.8-1.14-3.61C322.58,403.97,322.02,405.28,321.88,406.77z"/>
				<path class="st3" d="M321.67,402.76c-1.83,0.52-3.22,2.09-3.5,4.01h2.32C320.62,405.15,321.18,403.72,321.67,402.76z"/>
				<path class="st3" d="M332.45,400.28c-1.19-0.41-2.14-1.36-2.54-2.56c-0.26-0.76-0.97-1.27-1.77-1.27h-10.31
					c-0.8,0-1.51,0.51-1.77,1.27c-0.41,1.19-1.36,2.15-2.54,2.56c-0.75,0.26-1.26,0.97-1.26,1.77v2.61c0,3.4,1.02,6.68,2.95,9.47
					c1.76,2.56,4.2,4.56,7.03,5.79c0.24,0.1,0.49,0.15,0.75,0.15c0.25,0,0.51-0.05,0.75-0.15c2.84-1.23,5.27-3.23,7.03-5.79
					c1.93-2.8,2.95-6.07,2.95-9.47v-2.61C333.71,401.25,333.2,400.54,332.45,400.28z M323.02,413.74
					C323.02,413.74,323.02,413.74,323.02,413.74c-0.01,0-0.01,0-0.01,0c-3.46,0-6.27-2.82-6.27-6.28c0-3.46,2.82-6.28,6.28-6.28h0
					c3.46,0,6.28,2.82,6.28,6.28C329.29,410.92,326.48,413.74,323.02,413.74z"/>
				<path class="st3" d="M324.36,402.76c0.48,0.96,1.05,2.39,1.18,4.01h2.32C327.59,404.85,326.19,403.28,324.36,402.76z"/>
				<path class="st3" d="M323.02,411.77c0.43-0.81,1-2.12,1.14-3.61h-2.27C322.02,409.65,322.58,410.95,323.02,411.77z"/>
				<path class="st3" d="M318.17,408.16c0.27,1.92,1.67,3.49,3.5,4.01c-0.48-0.96-1.05-2.39-1.18-4.01H318.17z"/>
			</g>
		</g>
		<path class="st3" d="M108.5,196.47l2.36,0.61c0.08,0.02,0.17,0.03,0.25,0.03c0.44,0,0.84-0.29,0.95-0.74
			c0.14-0.53-0.18-1.06-0.71-1.2l-2.33-0.6c0.07-0.46,0.11-0.92,0.11-1.4c0-0.48-0.04-0.94-0.11-1.4l2.33-0.6
			c0.53-0.14,0.84-0.67,0.71-1.2c-0.14-0.53-0.67-0.85-1.2-0.71l-2.36,0.61c-0.33-0.81-0.77-1.56-1.3-2.23l1.53-1.53
			c0.28,0.11,0.58,0.17,0.9,0.17c1.36,0,2.46-1.1,2.46-2.46s-1.1-2.46-2.46-2.46s-2.46,1.1-2.46,2.46c0,0.32,0.06,0.62,0.17,0.9
			l-1.53,1.53c-0.67-0.54-1.42-0.98-2.23-1.3l0.61-2.36c0.14-0.53-0.18-1.06-0.71-1.2c-0.53-0.14-1.06,0.18-1.2,0.71l-0.6,2.33
			c-0.46-0.07-0.92-0.11-1.4-0.11s-0.94,0.04-1.4,0.11l-0.6-2.33c-0.14-0.53-0.67-0.85-1.2-0.71c-0.53,0.14-0.84,0.67-0.71,1.2
			l0.61,2.36c-0.81,0.33-1.56,0.77-2.23,1.3l-1.53-1.53c0.11-0.28,0.17-0.58,0.17-0.9c0-1.36-1.1-2.46-2.46-2.46
			s-2.46,1.11-2.46,2.46s1.1,2.46,2.46,2.46c0.32,0,0.62-0.06,0.9-0.17l1.53,1.53c-0.54,0.67-0.98,1.42-1.3,2.23l-2.36-0.61
			c-0.53-0.14-1.06,0.18-1.2,0.71c-0.14,0.53,0.18,1.06,0.71,1.2l2.33,0.6c-0.07,0.46-0.11,0.92-0.11,1.4
			c0,0.48,0.04,0.95,0.11,1.42l-2.32,0.58c-0.53,0.13-0.85,0.67-0.71,1.19c0.11,0.45,0.51,0.74,0.95,0.74
			c0.08,0,0.16-0.01,0.24-0.03l2.37-0.6c0.32,0.8,0.76,1.55,1.3,2.21l-1.53,1.53c-0.28-0.11-0.58-0.17-0.9-0.17
			c-1.36,0-2.46,1.1-2.46,2.46c0,1.36,1.1,2.46,2.46,2.46c1.36,0,2.46-1.1,2.46-2.46c0-0.32-0.06-0.62-0.17-0.9l1.53-1.53
			c0.67,0.54,1.42,0.98,2.23,1.3l-0.61,2.36c-0.14,0.53,0.18,1.06,0.71,1.2c0.08,0.02,0.17,0.03,0.25,0.03
			c0.44,0,0.84-0.29,0.95-0.74l0.6-2.33c0.46,0.07,0.92,0.11,1.4,0.11s0.94-0.04,1.4-0.11l0.6,2.33c0.12,0.44,0.51,0.74,0.95,0.74
			c0.08,0,0.16-0.01,0.25-0.03c0.53-0.14,0.84-0.67,0.71-1.2l-0.61-2.36c0.81-0.33,1.56-0.77,2.23-1.3l1.53,1.53
			c-0.11,0.28-0.17,0.58-0.17,0.9c0,1.36,1.1,2.46,2.46,2.46c1.36,0,2.46-1.1,2.46-2.46c0-1.36-1.1-2.46-2.46-2.46
			c-0.32,0-0.62,0.06-0.9,0.17l-1.53-1.53C107.74,198.03,108.18,197.28,108.5,196.47L108.5,196.47z M100.28,188.22
			c0.81,0,1.48,0.66,1.48,1.48s-0.66,1.48-1.48,1.48s-1.48-0.66-1.48-1.48S99.47,188.22,100.28,188.22L100.28,188.22z M95.33,193.17
			c0-0.81,0.66-1.48,1.48-1.48c0.81,0,1.48,0.66,1.48,1.48s-0.66,1.48-1.48,1.48S95.33,193.99,95.33,193.17L95.33,193.17z
			 M98.81,196.65c0-0.81,0.66-1.48,1.48-1.48s1.48,0.66,1.48,1.48s-0.66,1.48-1.48,1.48S98.81,197.47,98.81,196.65L98.81,196.65z
			 M102.28,193.17c0-0.81,0.66-1.48,1.48-1.48c0.81,0,1.48,0.66,1.48,1.48s-0.66,1.48-1.48,1.48S102.28,193.99,102.28,193.17
			L102.28,193.17z"/>
	</g>
	<circle class="st1" cx="256" cy="256" r="135.6"/>
	<linearGradient id="SVGID_1_" gradientUnits="userSpaceOnUse" x1="37.7914" y1="255.9999" x2="474.2087" y2="255.9999">
		<stop  offset="0" style="stop-color:#E5251F"/>
		<stop  offset="0.0481" style="stop-color:#C9201B"/>
		<stop  offset="0.101" style="stop-color:#B51C18"/>
		<stop  offset="0.1563" style="stop-color:#A91A16"/>
		<stop  offset="0.2172" style="stop-color:#A51916"/>
		<stop  offset="0.4308" style="stop-color:#D1211D"/>
		<stop  offset="0.5465" style="stop-color:#E52520"/>
		<stop  offset="0.9944" style="stop-color:#A51916"/>
	</linearGradient>
	<path class="st5" d="M435.56,132.05C367.11,32.88,231.22,7.98,132.05,76.44C32.88,144.89,7.98,280.78,76.44,379.95
		c68.46,99.17,204.34,124.07,303.51,55.61C479.12,367.11,504.02,231.22,435.56,132.05z M447.52,291.09
		c-4.56,24.88-13.72,48.26-27.23,69.5c-13.98,21.99-32.04,40.71-53.68,55.64s-45.54,25.18-71.06,30.46
		c-24.65,5.1-49.76,5.38-74.64,0.82c-24.88-4.56-48.26-13.72-69.5-27.23c-21.99-13.98-40.71-32.04-55.64-53.68
		s-25.18-45.54-30.46-71.06c-5.1-24.65-5.38-49.76-0.82-74.64c4.56-24.88,13.72-48.26,27.23-69.5
		c13.98-21.99,32.04-40.71,53.68-55.64s45.54-25.18,71.06-30.46c24.65-5.1,49.76-5.38,74.64-0.82c24.88,4.56,48.26,13.72,69.5,27.23
		c21.99,13.98,40.71,32.04,55.64,53.68s25.18,45.54,30.46,71.06C451.8,241.1,452.07,266.21,447.52,291.09z"/>
	
		<linearGradient id="SVGID_00000005244791303399798630000000100289932611294362_" gradientUnits="userSpaceOnUse" x1="12.0198" y1="255.804" x2="500.1711" y2="255.804" gradientTransform="matrix(0.823 -0.5681 0.5681 0.823 -100.0774 190.966)">
		<stop  offset="0" style="stop-color:#ECB71B"/>
		<stop  offset="0" style="stop-color:#DDA519"/>
		<stop  offset="0.3198" style="stop-color:#B57A12"/>
		<stop  offset="0.6802" style="stop-color:#FED74A"/>
		<stop  offset="1" style="stop-color:#EBCB35"/>
	</linearGradient>
	<path style="fill:url(#SVGID_00000005244791303399798630000000100289932611294362_);" d="M118.52,56.84
		c26.89-18.56,56.6-31.3,88.32-37.86c30.64-6.34,61.85-6.68,92.77-1.02c30.92,5.66,59.98,17.05,86.38,33.84
		c27.33,17.38,50.6,39.83,69.16,66.72c18.56,26.89,31.3,56.6,37.86,88.32c6.34,30.64,6.68,61.85,1.02,92.77
		c-5.66,30.92-17.05,59.98-33.84,86.38c-17.38,27.33-39.83,50.6-66.72,69.16c-26.89,18.56-56.6,31.3-88.32,37.86
		c-30.64,6.34-61.85,6.68-92.77,1.02c-30.92-5.66-59.98-17.05-86.38-33.84c-27.33-17.38-50.6-39.83-69.16-66.72
		c-18.56-26.89-31.3-56.6-37.86-88.32c-6.34-30.64-6.68-61.85-1.02-92.77c5.66-30.92,17.05-59.98,33.84-86.38
		C69.19,98.67,91.64,75.4,118.52,56.84 M117.34,55.13C6.41,131.71-21.44,283.72,55.13,394.66s228.59,138.79,339.52,62.21
		s138.79-228.59,62.21-339.52S228.28-21.44,117.34,55.13L117.34,55.13z"/>
	<g>
		
			<linearGradient id="SVGID_00000024692295652067825540000003925797361661813422_" gradientUnits="userSpaceOnUse" x1="0.1189" y1="255.804" x2="512.072" y2="255.804" gradientTransform="matrix(0.823 -0.5681 0.5681 0.823 -100.0774 190.966)">
			<stop  offset="0" style="stop-color:#E5251F"/>
			<stop  offset="0.0481" style="stop-color:#C9201B"/>
			<stop  offset="0.101" style="stop-color:#B51C18"/>
			<stop  offset="0.1563" style="stop-color:#A91A16"/>
			<stop  offset="0.2172" style="stop-color:#A51916"/>
			<stop  offset="0.4308" style="stop-color:#D1211D"/>
			<stop  offset="0.5465" style="stop-color:#E52520"/>
			<stop  offset="0.9944" style="stop-color:#A51916"/>
		</linearGradient>
		<path style="fill:url(#SVGID_00000024692295652067825540000003925797361661813422_);" d="M116.4,53.77
			c27.31-18.85,57.48-31.78,89.68-38.45c31.11-6.44,62.81-6.78,94.2-1.03c31.4,5.75,60.91,17.32,87.72,34.37
			c27.75,17.65,51.38,40.44,70.23,67.75c18.85,27.31,31.78,57.48,38.45,89.68c6.44,31.11,6.78,62.81,1.03,94.21
			c-5.75,31.4-17.32,60.91-34.37,87.72c-17.65,27.75-40.44,51.38-67.75,70.23c-27.31,18.85-57.48,31.78-89.68,38.45
			c-31.11,6.44-62.81,6.78-94.21,1.03c-31.4-5.75-60.91-17.32-87.72-34.37c-27.75-17.65-51.38-40.44-70.23-67.75
			c-18.85-27.31-31.78-57.48-38.45-89.68c-6.44-31.11-6.78-62.81-1.03-94.21c5.75-31.4,17.32-60.91,34.37-87.72
			C66.3,96.24,89.09,72.61,116.4,53.77 M110.58,45.34C-5.76,125.65-34.97,285.07,45.34,401.42s239.73,145.56,356.08,65.24
			s145.56-239.73,65.24-356.08S226.93-34.97,110.58,45.34L110.58,45.34z"/>
	</g>
	<g>
		<path id="SVGID_x5F_00000170973037414294239240000010778062916290993561_x5F_" class="st8" d="M481.97,256
			c0,124.8-101.17,225.97-225.97,225.97S30.03,380.8,30.03,256S131.2,30.03,256,30.03S481.97,131.2,481.97,256z"/>
		<text>		<textPath  xlink:href="#SVGID_x5F_00000170973037414294239240000010778062916290993561_x5F_" startOffset="98.882%">
<tspan  style="fill:#FFFFFF; font-family:'AgencyFB-Bold'; font-size:12.3046px; letter-spacing:153;"> • N3TSIS •  • N3TSIS •  • N3TSIS •  • N3TSIS •  • N3TSIS •  • N3TSIS •  • N3TSIS •  • N3TSIS •  • N3TSIS •  • N3TSIS •  • N3TSIS •  • N3TSIS •  • N3TSIS •  • N3TSIS •  • N3TSIS •  • N3TSIS •  • N3TSIS •  • N3TSIS •  • N3TSIS • </tspan>		</textPath>
</text>
		<g>
			<path id="SVGID_x5F_00000163755735247443044330000010305910160612223120_x5F_" class="st8" d="M481.97,256
				c0,124.8-101.17,225.97-225.97,225.97S30.03,380.8,30.03,256S131.2,30.03,256,30.03S481.97,131.2,481.97,256z"/>
			<text>			<textPath  xlink:href="#SVGID_x5F_00000163755735247443044330000010305910160612223120_x5F_" startOffset="98.882%">
<tspan  style="fill:#FFFFFF; font-family:'AgencyFB-Bold'; font-size:12.3046px; letter-spacing:153;"> • N3TSIS •  • N3TSIS •  • N3TSIS •  • N3TSIS •  • N3TSIS •  • N3TSIS •  • N3TSIS •  • N3TSIS •  • N3TSIS •  • N3TSIS •  • N3TSIS •  • N3TSIS •  • N3TSIS •  • N3TSIS •  • N3TSIS •  • N3TSIS •  • N3TSIS •  • N3TSIS •  • N3TSIS • </tspan>			</textPath>
</text>
		</g>
	</g>
	
		<linearGradient id="SVGID_00000111156085263566600890000010368129210850760336_" gradientUnits="userSpaceOnUse" x1="12.0198" y1="255.804" x2="500.1711" y2="255.804" gradientTransform="matrix(0.823 -0.5681 0.5681 0.823 -100.0774 190.966)">
		<stop  offset="0" style="stop-color:#E5251F"/>
		<stop  offset="0.0481" style="stop-color:#C9201B"/>
		<stop  offset="0.101" style="stop-color:#B51C18"/>
		<stop  offset="0.1563" style="stop-color:#A91A16"/>
		<stop  offset="0.2172" style="stop-color:#A51916"/>
		<stop  offset="0.4308" style="stop-color:#D1211D"/>
		<stop  offset="0.5465" style="stop-color:#E52520"/>
		<stop  offset="0.9944" style="stop-color:#A51916"/>
	</linearGradient>
	<path style="fill:url(#SVGID_00000111156085263566600890000010368129210850760336_);" d="M118.52,56.84
		c26.89-18.56,56.6-31.3,88.32-37.86c30.64-6.34,61.85-6.68,92.77-1.02c30.92,5.66,59.98,17.05,86.38,33.84
		c27.33,17.38,50.6,39.83,69.16,66.72c18.56,26.89,31.3,56.6,37.86,88.32c6.34,30.64,6.68,61.85,1.02,92.77
		c-5.66,30.92-17.05,59.98-33.84,86.38c-17.38,27.33-39.83,50.6-66.72,69.16c-26.89,18.56-56.6,31.3-88.32,37.86
		c-30.64,6.34-61.85,6.68-92.77,1.02c-30.92-5.66-59.98-17.05-86.38-33.84c-27.33-17.38-50.6-39.83-69.16-66.72
		c-18.56-26.89-31.3-56.6-37.86-88.32c-6.34-30.64-6.68-61.85-1.02-92.77c5.66-30.92,17.05-59.98,33.84-86.38
		C69.19,98.67,91.64,75.4,118.52,56.84 M117.34,55.13C6.41,131.71-21.44,283.72,55.13,394.66s228.59,138.79,339.52,62.21
		s138.79-228.59,62.21-339.52S228.28-21.44,117.34,55.13L117.34,55.13z"/>
	<g>
		<path id="SVGID_x5F_00000093179281433246498370000005518153675037093509_x5F_" class="st8" d="M455.26,256
			c0,110.05-89.21,199.26-199.26,199.26S56.74,366.05,56.74,256S145.95,56.74,256,56.74S455.26,145.95,455.26,256z"/>
		<text>		<textPath  xlink:href="#SVGID_x5F_00000093179281433246498370000005518153675037093509_x5F_" startOffset="98.882%">
<tspan  class="st2" style="font-family:'MyriadPro-Regular'; font-size:17.6662px; letter-spacing:410;">NETWORK SECURITY SOLUTIONS  •  N3TSIS  •  NETWORK SECURITY SOLUTIONS  •  N3TSIS  •  </tspan>		</textPath>
</text>
		<g>
			<path id="SVGID_x5F_00000041992956232389853590000002933800989199166351_x5F_" class="st8" d="M455.26,256
				c0,110.05-89.21,199.26-199.26,199.26S56.74,366.05,56.74,256S145.95,56.74,256,56.74S455.26,145.95,455.26,256z"/>
			<text>			<textPath  xlink:href="#SVGID_x5F_00000041992956232389853590000002933800989199166351_x5F_" startOffset="98.882%">
<tspan  class="st2" style="font-family:'MyriadPro-Regular'; font-size:17.6662px; letter-spacing:410;">NETWORK SECURITY SOLUTIONS  •  N3TSIS  •  NETWORK SECURITY SOLUTIONS  •  N3TSIS  •  </tspan>			</textPath>
</text>
		</g>
	</g>
	<path class="st10" d="M192.52,228.74c-2.51,5.84-4.17,11.96-4.99,18.17h-18.3c0.64-6.15,1.93-12.25,3.88-18.17
		c4.13-12.59,11.2-24.42,21.2-34.43c10.01-10.01,21.84-17.08,34.43-21.21v-18.95c-17.32,4.62-33.69,13.72-47.28,27.31
		c-8.71,8.71-15.58,18.58-20.61,29.1h-19.81c6.03-15.28,15.22-29.59,27.58-41.95c17.15-17.15,38.09-28.21,60.12-33.17
		c5.99-1.35,12.07-2.24,18.17-2.69v18.23v18.25v18.3c-6.21,0.82-12.33,2.48-18.17,4.99c-7.84,3.36-15.18,8.24-21.58,14.64
		C200.77,213.56,195.89,220.91,192.52,228.74 M228.74,319.47c5.84,2.51,11.96,4.17,18.17,4.99v18.29
		c-6.15-0.64-12.24-1.93-18.17-3.88c-12.59-4.13-24.42-11.19-34.43-21.2c-10.01-10.01-17.07-21.84-21.2-34.43h-18.95
		c4.62,17.32,13.72,33.69,27.3,47.28c8.72,8.71,18.58,15.58,29.1,20.61v19.81c-15.28-6.03-29.6-15.22-41.95-27.58
		c-17.15-17.15-28.21-38.09-33.17-60.12c-1.35-6-2.25-12.07-2.7-18.17h18.23h18.25h18.3c0.82,6.21,2.48,12.33,4.99,18.17
		c3.36,7.84,8.24,15.18,14.64,21.58C213.57,311.23,220.91,316.11,228.74,319.47z M319.48,283.26c2.51-5.84,4.17-11.96,4.99-18.17
		h18.3c-0.64,6.15-1.93,12.24-3.88,18.17c-4.13,12.58-11.2,24.42-21.2,34.43c-10.01,10.01-21.84,17.07-34.43,21.2v18.95
		c17.32-4.62,33.69-13.72,47.28-27.3c8.72-8.72,15.59-18.58,20.61-29.1h19.81c-6.03,15.28-15.22,29.59-27.57,41.95
		c-17.15,17.15-38.09,28.21-60.13,33.17c-5.99,1.35-12.07,2.25-18.17,2.7v-18.23v-18.25v-18.29c6.21-0.82,12.33-2.48,18.17-4.99
		c7.84-3.36,15.18-8.24,21.58-14.64C311.23,298.43,316.11,291.09,319.48,283.26z M256,205.11c5.06,0,9.94,0.74,14.55,2.11v19.46
		c-4.38-2.18-9.32-3.4-14.55-3.4c-18.07,0-32.72,14.65-32.72,32.72c0,18.07,14.65,32.72,32.72,32.72
		c18.07,0,32.72-14.65,32.72-32.72v-27.36v-11.61v-21.86c-1.79-0.97-3.61-1.84-5.46-2.63c-5.84-2.51-11.96-4.17-18.17-4.99v-18.3
		c6.15,0.64,12.25,1.93,18.17,3.88c12.59,4.13,24.42,11.2,34.43,21.21c10.01,10.01,17.07,21.84,21.2,34.43h18.95
		c-4.62-17.32-13.72-33.69-27.31-47.28c-8.72-8.72-18.58-15.59-29.1-20.61v-19.82c15.28,6.03,29.6,15.22,41.95,27.58
		c17.15,17.15,28.21,38.09,33.17,60.13c1.35,5.99,2.25,12.07,2.69,18.17h-18.23h-18.25h-18.3c-0.82-6.21-2.48-12.33-4.99-18.17
		c-2.99-6.98-7.19-13.56-12.58-19.44V256c0,0.36-0.01,0.68-0.01,1c-0.53,27.64-23.11,49.89-50.88,49.89
		c-28.11,0-50.89-22.78-50.89-50.89C205.11,227.89,227.89,205.11,256,205.11z M228.74,376.55v-18.71
		c5.97,1.59,12.05,2.65,18.17,3.18v18.23C240.81,378.8,234.74,377.9,228.74,376.55z M135.45,228.74h18.71
		c-1.59,5.97-2.65,12.05-3.18,18.17h-18.23C133.2,240.81,134.1,234.74,135.45,228.74z M283.26,135.45v18.71
		c-5.97-1.59-12.05-2.65-18.17-3.18v-18.23C271.19,133.2,277.27,134.1,283.26,135.45z M376.55,283.26h-18.71
		c1.59-5.97,2.65-12.06,3.18-18.17h18.23C378.8,271.19,377.9,277.26,376.55,283.26z"/>
	<g>
		<text transform="matrix(1 0 0 1 116.165 291.2061)" class="st2 st11 st12 st13">NET</text>
		<g>
			
				<linearGradient id="SVGID_00000061444962486186917450000004312784548739612863_" gradientUnits="userSpaceOnUse" x1="124.4921" y1="255.4262" x2="400.1933" y2="255.4262">
				<stop  offset="0" style="stop-color:#E5251F"/>
				<stop  offset="0.0481" style="stop-color:#C9201B"/>
				<stop  offset="0.101" style="stop-color:#B51C18"/>
				<stop  offset="0.1563" style="stop-color:#A91A16"/>
				<stop  offset="0.2172" style="stop-color:#A51916"/>
				<stop  offset="0.4308" style="stop-color:#D1211D"/>
				<stop  offset="0.5465" style="stop-color:#E52520"/>
				<stop  offset="0.9944" style="stop-color:#A51916"/>
			</linearGradient>
			<path style="fill:url(#SVGID_00000061444962486186917450000004312784548739612863_);" d="M217,219.65l-10.15,57.25
				c-0.69,3.99-2.6,7.37-5.72,10.15c-3.12,2.78-6.51,4.16-10.15,4.16h-11.32l-25.24-44.37l-7.81,44.37h-22.12l10.02-57.25
				c0.69-3.99,2.6-7.37,5.73-10.15c3.12-2.78,6.51-4.16,10.15-4.16h11.32l25.24,44.37l7.81-44.37H217z"/>
			
				<linearGradient id="SVGID_00000132781061584333043660000016491538773660136880_" gradientUnits="userSpaceOnUse" x1="124.4921" y1="255.4262" x2="400.1933" y2="255.4262">
				<stop  offset="0" style="stop-color:#E5251F"/>
				<stop  offset="0.0481" style="stop-color:#C9201B"/>
				<stop  offset="0.101" style="stop-color:#B51C18"/>
				<stop  offset="0.1563" style="stop-color:#A91A16"/>
				<stop  offset="0.2172" style="stop-color:#A51916"/>
				<stop  offset="0.4308" style="stop-color:#D1211D"/>
				<stop  offset="0.5465" style="stop-color:#E52520"/>
				<stop  offset="0.9944" style="stop-color:#A51916"/>
			</linearGradient>
			<path style="fill:url(#SVGID_00000132781061584333043660000016491538773660136880_);" d="M247.06,238.77l-1.17,7.16h47.62
				l-3.38,19H242.5l-1.3,7.16h57.64l-3.25,19.13h-66.62c-3.64,0-6.53-1.39-8.65-4.16c-2.13-2.78-2.84-6.16-2.15-10.15l7.55-42.94
				c0.69-3.99,2.6-7.37,5.73-10.15c3.12-2.78,6.51-4.16,10.15-4.16h66.62l-3.38,19.13H247.06z"/>
			
				<linearGradient id="SVGID_00000042695135833865504290000000536545484948753803_" gradientUnits="userSpaceOnUse" x1="124.4921" y1="255.4262" x2="400.1933" y2="255.4262">
				<stop  offset="0" style="stop-color:#E5251F"/>
				<stop  offset="0.0481" style="stop-color:#C9201B"/>
				<stop  offset="0.101" style="stop-color:#B51C18"/>
				<stop  offset="0.1563" style="stop-color:#A91A16"/>
				<stop  offset="0.2172" style="stop-color:#A51916"/>
				<stop  offset="0.4308" style="stop-color:#D1211D"/>
				<stop  offset="0.5465" style="stop-color:#E52520"/>
				<stop  offset="0.9944" style="stop-color:#A51916"/>
			</linearGradient>
			<path style="fill:url(#SVGID_00000042695135833865504290000000536545484948753803_);" d="M400.19,219.65l-3.38,19.13h-28.88
				l-9.24,52.43h-22.25l9.37-52.43h-28.88l3.38-19.13H400.19z"/>
		</g>
	</g>
</g>
</svg>
